<svg height="479pt" viewBox="0 -64 479.92712 479" width="479pt" xmlns="http://www.w3.org/2000/svg" xmlns:xlink="http://www.w3.org/1999/xlink"><linearGradient id="a"><stop offset="0" stop-color="#f56bf4"/><stop offset="1" stop-color="#f9a4c1"/></linearGradient><linearGradient id="b" gradientUnits="userSpaceOnUse" x1="-.128019" x2="472.479981" xlink:href="#a" y1="176.46356" y2="176.46356"/><linearGradient id="c" gradientUnits="userSpaceOnUse" x1="-.128019" x2="472.479981" xlink:href="#a" y1="280.46356" y2="280.46356"/><path d="m383.871094 160.464844c-6.648438.003906-13.277344.695312-19.78125 2.070312l-51.417969-156.558594c-1.074219-3.289062-4.140625-5.511718-7.601563-5.511718h-49.199218c-4.417969 0-8 3.582031-8 8 0 4.417968 3.582031 8 8 8h43.433594l34.167968 104h-167.945312l-23.632813-40h17.976563c13.253906 0 24-10.746094 24-24 0-13.257813-10.746094-24-24-24h-64c-13.253906 0-24 10.742187-24 24 0 13.253906 10.746094 24 24 24h27.433594l27.910156 47.199218-20.941406 39.28125c-39.242188-15.042968-83.707032-2.792968-109.710938 30.226563-26 33.015625-27.484375 79.113281-3.660156 113.734375 23.824218 34.625 67.410156 49.707031 107.539062 37.222656 40.128906-12.488281 67.457032-49.640625 67.429688-91.664062h40.730468c1.804688-.175782 3.5-.960938 4.796876-2.234375l.296874-.304688 103.199219-110.558593 7.832031 23.871093c-45.933593 18.261719-70.4375 68.46875-56.566406 115.917969 13.871094 47.445312 61.558594 76.546875 110.097656 67.191406 48.539063-9.359375 81.988282-54.109375 77.222657-103.308594-4.761719-49.203124-46.175781-86.703124-95.609375-86.574218zm-296-104c0-4.417969 3.582031-8 8-8h64c4.417968 0 8 3.582031 8 8 0 4.417968-3.582032 8-8 8h-64c-4.417969 0-8-3.582032-8-8zm8 280c-31.925782.105468-60.859375-18.785156-73.609375-48.058594-12.746094-29.273438-6.871094-63.324219 14.957031-86.628906 21.824219-23.304688 55.417969-31.398438 85.460938-20.59375l-33.871094 63.511718c-1.324219 2.480469-1.25 5.472657.199218 7.886719 1.445313 2.410157 4.050782 3.882813 6.863282 3.882813h80c-.046875 44.160156-35.835938 79.949218-80 80zm41.28125-148.394532c19.136718 11.527344 32.589844 30.519532 37.121094 52.394532h-65.066407zm53.273437 52.394532c-4.742187-27.816406-21.472656-52.144532-45.753906-66.519532l16.0625-30.121093 57.113281 96.640625zm42.894531-5.273438-58.335937-98.726562h150.488281zm150.550782 101.273438c-38.222656-.058594-71.066406-27.144532-78.398438-64.660156-7.328125-37.515626 12.902344-74.972657 48.296875-89.414063l22.503907 68.5625c.828124 2.789063 3.105468 4.910156 5.949218 5.535156s5.800782-.34375 7.726563-2.527343c1.921875-2.1875 2.503906-5.246094 1.523437-7.984376l-22.34375-68.089843c29.878906-5.710938 60.417969 6.015625 78.789063 30.265625 18.371093 24.25 21.398437 56.820312 7.8125 84.039062-13.585938 27.222656-41.4375 44.378906-71.859375 44.273438zm0 0" fill="url(#b)"/><path d="m255.871094 288.464844c4.417968 0 8-3.582032 8-8 0-4.417969-3.582032-8-8-8h-32c-4.417969 0-8 3.582031-8 8 0 4.417968 3.582031 8 8 8zm0 0" fill="url(#c)"/></svg>